# xmcd CD database file
#
# Track frame offsets:
#	150
#	17742
#	36992
#	61767
#	78872
#	94042
#	113025
#	134245
#	145420
#	171432
#	190682
#	219517
#
# Disc length: 3206 seconds
#
# Revision: 0
# Processed by: cddbd v1.4PL0 Copyright (c) Steve Scherf et al.
# Submitted via: CDex 1.40Release
#
DISCID=a80c840c
DTITLE=Shovel Blues Band - Live in Pinheiros Concert
DYEAR=2002
DGENRE=Blues
TTITLE0=Further on up the road
TTITLE1=Help me
TTITLE2=Thrill is gone
TTITLE3=Sweet home Chicago
TTITLE4=Susie Q
TTITLE5=Damn right I've got the Blues
TTITLE6=Hey Joe
TTITLE7=Yellow Basket
TTITLE8=Babe what you want me to do
TTITLE9=Red House
TTITLE10=Walkin' the devil blues
TTITLE11=Hoochie Coochie Man
EXTD=YEAR: 2002 ID3G: 0
EXTT0=
EXTT1=
EXTT2=
EXTT3=
EXTT4=
EXTT5=
EXTT6=
EXTT7=
EXTT8=
EXTT9=
EXTT10=
EXTT11=
PLAYORDER=
